<mxfile host="65bd71144e">
    <diagram id="dB-3ol5uDr2LxEsU0GAV" name="Page-1">
        <mxGraphModel dx="1173" dy="1364" grid="1" gridSize="10" guides="1" tooltips="1" connect="1" arrows="1" fold="1" page="1" pageScale="1" pageWidth="850" pageHeight="1100" math="0" shadow="0">
            <root>
                <mxCell id="0"/>
                <mxCell id="1" parent="0"/>
                <mxCell id="2" value="" style="rounded=0;whiteSpace=wrap;html=1;gradientDirection=radial;fillColor=#FAF8F8;shadow=0;" parent="1" vertex="1">
                    <mxGeometry width="850" height="1100" as="geometry"/>
                </mxCell>
                <mxCell id="4" value="" style="rounded=0;whiteSpace=wrap;html=1;gradientDirection=radial;" parent="1" vertex="1">
                    <mxGeometry width="850" height="60" as="geometry"/>
                </mxCell>
                <mxCell id="5" value="" style="rounded=0;whiteSpace=wrap;html=1;gradientDirection=radial;fillColor=#CFCFCF;strokeColor=#b46504;" parent="1" vertex="1">
                    <mxGeometry y="60" width="850" height="60" as="geometry"/>
                </mxCell>
                <mxCell id="8" value="AVIES DE NOTRE CLIENTS" style="rounded=0;whiteSpace=wrap;html=1;shadow=0;glass=0;labelBackgroundColor=#FAF8F8;fontFamily=Georgia;fontColor=#000000;fillColor=none;gradientColor=none;gradientDirection=radial;labelBorderColor=none;fontStyle=1;dashed=1;dashPattern=1 4;opacity=0;fontSize=24;" parent="1" vertex="1">
                    <mxGeometry x="190" y="160" width="460" height="80" as="geometry"/>
                </mxCell>
                <mxCell id="16" value="" style="rounded=0;whiteSpace=wrap;html=1;shadow=0;glass=0;labelBackgroundColor=#FAF8F8;labelBorderColor=none;strokeColor=#CFCFCF;fontFamily=Georgia;fontSize=24;fontColor=#000000;fillColor=#CFCFCF;gradientColor=none;gradientDirection=radial;" parent="1" vertex="1">
                    <mxGeometry y="830" width="850" height="270" as="geometry"/>
                </mxCell>
                <mxCell id="17" value="" style="ellipse;whiteSpace=wrap;html=1;" vertex="1" parent="1">
                    <mxGeometry x="380" y="920" width="90" height="90" as="geometry"/>
                </mxCell>
                <mxCell id="18" value="" style="ellipse;whiteSpace=wrap;html=1;" vertex="1" parent="1">
                    <mxGeometry x="170" y="920" width="90" height="90" as="geometry"/>
                </mxCell>
                <mxCell id="19" value="" style="ellipse;whiteSpace=wrap;html=1;" vertex="1" parent="1">
                    <mxGeometry x="590" y="920" width="90" height="90" as="geometry"/>
                </mxCell>
            </root>
        </mxGraphModel>
    </diagram>
</mxfile>